<mxfile host="app.diagrams.net" modified="2023-10-07T08:06:09.686Z" agent="Mozilla/5.0 (Windows NT 10.0; Win64; x64) AppleWebKit/537.36 (KHTML, like Gecko) Chrome/117.0.0.0 Safari/537.36" etag="ImgnH4OmKmqgmoht85y9" version="21.7.5" type="device">
  <diagram name="Page-1" id="_iUPL7qOO39QT2Nzi5e0">
    <mxGraphModel dx="565" dy="317" grid="1" gridSize="10" guides="1" tooltips="1" connect="1" arrows="1" fold="1" page="1" pageScale="1" pageWidth="827" pageHeight="1169" math="0" shadow="0">
      <root>
        <mxCell id="0" />
        <mxCell id="1" parent="0" />
        <mxCell id="hRGvlZYViXpb-e1UZidd-1" value="PESTO&lt;br&gt;PROJECT" style="shape=cylinder3;whiteSpace=wrap;html=1;boundedLbl=1;backgroundOutline=1;size=15;fillColor=#e1d5e7;strokeColor=#9673a6;fontStyle=1;fontColor=#009999;" vertex="1" parent="1">
          <mxGeometry x="280" y="60" width="130" height="140" as="geometry" />
        </mxCell>
        <mxCell id="hRGvlZYViXpb-e1UZidd-2" value="PESTO&lt;br&gt;CONTENT" style="shape=cylinder3;whiteSpace=wrap;html=1;boundedLbl=1;backgroundOutline=1;size=15;fillColor=#e1d5e7;strokeColor=#9673a6;fontStyle=1;fontColor=#009999;" vertex="1" parent="1">
          <mxGeometry x="440" y="250" width="120" height="140" as="geometry" />
        </mxCell>
        <mxCell id="hRGvlZYViXpb-e1UZidd-4" style="edgeStyle=orthogonalEdgeStyle;rounded=0;orthogonalLoop=1;jettySize=auto;html=1;entryX=0;entryY=0;entryDx=0;entryDy=97.5;entryPerimeter=0;curved=1;strokeWidth=5;endArrow=none;endFill=0;fillColor=#cce5ff;strokeColor=#9999FF;startArrow=diamond;startFill=1;" edge="1" parent="1" source="hRGvlZYViXpb-e1UZidd-3" target="hRGvlZYViXpb-e1UZidd-2">
          <mxGeometry relative="1" as="geometry">
            <Array as="points">
              <mxPoint x="350" y="320" />
              <mxPoint x="350" y="348" />
            </Array>
          </mxGeometry>
        </mxCell>
        <mxCell id="hRGvlZYViXpb-e1UZidd-3" value="PESTO&lt;br&gt;CONTENT-TYPE" style="shape=cylinder3;whiteSpace=wrap;html=1;boundedLbl=1;backgroundOutline=1;size=15;fillColor=#e1d5e7;strokeColor=#9673a6;fontStyle=1;fontColor=#009999;fontSize=12;" vertex="1" parent="1">
          <mxGeometry x="140" y="250" width="120" height="140" as="geometry" />
        </mxCell>
        <mxCell id="hRGvlZYViXpb-e1UZidd-6" style="edgeStyle=orthogonalEdgeStyle;rounded=0;orthogonalLoop=1;jettySize=auto;html=1;entryX=0;entryY=0;entryDx=0;entryDy=97.5;entryPerimeter=0;curved=1;strokeWidth=5;endArrow=diamond;endFill=1;fillColor=#cce5ff;strokeColor=#9999FF;exitX=1;exitY=0.5;exitDx=0;exitDy=0;exitPerimeter=0;" edge="1" parent="1" source="hRGvlZYViXpb-e1UZidd-1">
          <mxGeometry relative="1" as="geometry">
            <mxPoint x="460" y="23" as="sourcePoint" />
            <mxPoint x="500" y="250" as="targetPoint" />
            <Array as="points">
              <mxPoint x="500" y="130" />
            </Array>
          </mxGeometry>
        </mxCell>
        <mxCell id="hRGvlZYViXpb-e1UZidd-7" value="&lt;b&gt;&lt;font color=&quot;#ff00ff&quot; face=&quot;Courier New&quot; style=&quot;font-size: 16px;&quot;&gt;1..1&lt;/font&gt;&lt;/b&gt;" style="text;html=1;strokeColor=none;fillColor=none;align=center;verticalAlign=middle;whiteSpace=wrap;rounded=0;rotation=0;" vertex="1" parent="1">
          <mxGeometry x="420" y="110" width="50" height="20" as="geometry" />
        </mxCell>
        <mxCell id="hRGvlZYViXpb-e1UZidd-8" value="&lt;b&gt;&lt;font color=&quot;#ff00ff&quot; face=&quot;Courier New&quot; style=&quot;font-size: 16px;&quot;&gt;0..*&lt;br&gt;&lt;/font&gt;&lt;/b&gt;" style="text;html=1;strokeColor=none;fillColor=none;align=center;verticalAlign=middle;whiteSpace=wrap;rounded=0;rotation=0;" vertex="1" parent="1">
          <mxGeometry x="500" y="220" width="50" height="20" as="geometry" />
        </mxCell>
        <mxCell id="hRGvlZYViXpb-e1UZidd-9" value="&lt;b&gt;&lt;font color=&quot;#ff00ff&quot; face=&quot;Courier New&quot; style=&quot;font-size: 16px;&quot;&gt;0..*&lt;/font&gt;&lt;/b&gt;" style="text;html=1;strokeColor=none;fillColor=none;align=center;verticalAlign=middle;whiteSpace=wrap;rounded=0;rotation=0;" vertex="1" parent="1">
          <mxGeometry x="389" y="320" width="50" height="20" as="geometry" />
        </mxCell>
        <mxCell id="hRGvlZYViXpb-e1UZidd-10" value="&lt;b&gt;&lt;font color=&quot;#ff00ff&quot; face=&quot;Courier New&quot; style=&quot;font-size: 16px;&quot;&gt;1..1&lt;/font&gt;&lt;/b&gt;" style="text;html=1;strokeColor=none;fillColor=none;align=center;verticalAlign=middle;whiteSpace=wrap;rounded=0;rotation=0;" vertex="1" parent="1">
          <mxGeometry x="260" y="290" width="50" height="20" as="geometry" />
        </mxCell>
        <mxCell id="hRGvlZYViXpb-e1UZidd-11" style="edgeStyle=orthogonalEdgeStyle;rounded=0;orthogonalLoop=1;jettySize=auto;html=1;entryX=0.5;entryY=0;entryDx=0;entryDy=0;entryPerimeter=0;curved=1;strokeWidth=5;endArrow=diamond;endFill=1;fillColor=#cce5ff;strokeColor=#9999FF;exitX=-0.001;exitY=0.546;exitDx=0;exitDy=0;exitPerimeter=0;" edge="1" parent="1" source="hRGvlZYViXpb-e1UZidd-1" target="hRGvlZYViXpb-e1UZidd-3">
          <mxGeometry relative="1" as="geometry">
            <mxPoint x="420" y="140" as="sourcePoint" />
            <mxPoint x="510" y="260" as="targetPoint" />
            <Array as="points">
              <mxPoint x="280" y="140" />
              <mxPoint x="200" y="140" />
            </Array>
          </mxGeometry>
        </mxCell>
        <mxCell id="hRGvlZYViXpb-e1UZidd-12" value="&lt;b&gt;&lt;font color=&quot;#ff00ff&quot; face=&quot;Courier New&quot; style=&quot;font-size: 16px;&quot;&gt;1..1&lt;/font&gt;&lt;/b&gt;" style="text;html=1;strokeColor=none;fillColor=none;align=center;verticalAlign=middle;whiteSpace=wrap;rounded=0;rotation=0;" vertex="1" parent="1">
          <mxGeometry x="220" y="110" width="50" height="20" as="geometry" />
        </mxCell>
        <mxCell id="hRGvlZYViXpb-e1UZidd-13" value="&lt;b&gt;&lt;font color=&quot;#ff00ff&quot; face=&quot;Courier New&quot; style=&quot;font-size: 16px;&quot;&gt;0..*&lt;br&gt;&lt;/font&gt;&lt;/b&gt;" style="text;html=1;strokeColor=none;fillColor=none;align=center;verticalAlign=middle;whiteSpace=wrap;rounded=0;rotation=0;" vertex="1" parent="1">
          <mxGeometry x="140" y="210" width="50" height="20" as="geometry" />
        </mxCell>
      </root>
    </mxGraphModel>
  </diagram>
</mxfile>
